<!-- icons.svg -->

<svg width='0' height='0' xmlns="http://www.w3.org/2000/svg" xmlns:xlink="http://www.w3.org/1999/xlink">
<defs>

<symbol viewBox="0 0 24 24" id="account">
<path d="M12 11C13.1046 11 14 10.1046 14 9C14 7.89543 13.1046 7 12 7C10.8954 7 10 7.89543 10 9C10 10.1046 10.8954 11 12 11Z"/>
<path fill-rule="evenodd" clip-rule="evenodd" d="M12 22C17.52 22 22 17.52 22 12C22 6.48 17.52 2 12 2C6.48 2 2 6.48 2 12C2 17.52 6.48 22 12 22ZM12 4C16.41 4 20 7.59 20 12C20 14.5201 18.8277 16.7723 17 18.24V18C17 15.24 14.76 13 12 13C9.24 13 7 15.24 7 18V18.24C5.17229 16.7723 4 14.5201 4 12C4 7.59 7.59 4 12 4ZM12 20C13.03 20 14.05 19.8 15 19.41V18C15 16.35 13.65 15 12 15C10.35 15 9 16.35 9 18V19.41C9.95 19.8 10.97 20 12 20Z"/>
</symbol>

<symbol viewBox="0 0 24 24" id="account-add">
<path d='M9 11C10.1046 11 11 10.1046 11 9C11 7.89543 10.1046 7 9 7C7.89543 7 7 7.89543 7 9C7 10.1046 7.89543 11 9 11Z' />
<path d='M18 11C18 11.4142 17.6642 11.75 17.25 11.75H16.25V12.75C16.25 13.1642 15.9142 13.5 15.5 13.5C15.0858 13.5 14.75 13.1642 14.75 12.75V11.75H13.75C13.3358 11.75 13 11.4142 13 11C13 10.5858 13.3358 10.25 13.75 10.25H14.75V9.25C14.75 8.83579 15.0858 8.5 15.5 8.5C15.9142 8.5 16.25 8.83579 16.25 9.25V10.25H17.25C17.6642 10.25 18 10.5858 18 11Z' />
<path fill-rule='evenodd' clip-rule='evenodd' d='M11.8708 21.9992C6.41027 21.9299 2 17.4769 2 12C2 6.48 6.48 2 12 2C17.52 2 22 6.48 22 12C22 16.8351 18.5627 20.8723 14 21.7997C13.9642 21.8068 13.9284 21.8141 13.8926 21.8209C13.2797 21.9385 12.647 22 12 22C11.9569 22 11.9138 21.9997 11.8708 21.9992ZM12 4C16.41 4 20 7.59 20 12C20 15.7197 17.4459 18.856 14 19.7467V18C14 15.24 11.76 13 9 13C7.20031 13 5.62597 13.9482 4.74552 15.3704C4.26726 14.3455 4 13.2033 4 12C4 7.59 7.59 4 12 4ZM12 20C9.88566 20 7.95982 19.1748 6.52773 17.8296C6.36979 17.6801 6.21709 17.5235 6.07 17.36C6.37 16.01 7.57 15 9 15C10.65 15 12 16.35 12 18V20Z'/>
</symbol>

<symbol viewBox="0 0 24 24" id="account-square">
<path d="M12 11C13.1046 11 14 10.1046 14 9C14 7.89543 13.1046 7 12 7C10.8954 7 10 7.89543 10 9C10 10.1046 10.8954 11 12 11Z"/>
<path fill-rule="evenodd" clip-rule="evenodd" d="M5 21C3.9 21 3 20.1 3 19V5C3 3.9 3.9 3 5 3H19C20.1 3 21 3.9 21 5V19C21 20.1 20.1 21 19 21H5ZM19 5V19H17V18C17 15.24 14.76 13 12 13C9.24 13 7 15.24 7 18V19H5V5H19ZM9 19H15V18C15 16.35 13.65 15 12 15C10.35 15 9 16.35 9 18V19Z"/>
</symbol>

<symbol viewBox="0 0 24 24" id="account-square-add">
<path d="M9 11C10.1046 11 11 10.1046 11 9C11 7.89543 10.1046 7 9 7C7.89543 7 7 7.89543 7 9C7 10.1046 7.89543 11 9 11Z"/>
<path d="M17.25 11.75C17.6642 11.75 18 11.4142 18 11C18 10.5858 17.6642 10.25 17.25 10.25H16.25V9.25C16.25 8.83579 15.9142 8.5 15.5 8.5C15.0858 8.5 14.75 8.83579 14.75 9.25V10.25H13.75C13.3358 10.25 13 10.5858 13 11C13 11.4142 13.3358 11.75 13.75 11.75H14.75V12.75C14.75 13.1642 15.0858 13.5 15.5 13.5C15.9142 13.5 16.25 13.1642 16.25 12.75V11.75H17.25Z"/>
<path fill-rule="evenodd" clip-rule="evenodd" d="M5 21C3.9 21 3 20.1 3 19V5C3 3.9 3.9 3 5 3H19C20.1 3 21 3.9 21 5V19C21 20.1 20.1 21 19 21H5ZM19 5V19H14V18C14 15.24 11.76 13 9 13C7.36499 13 5.91247 13.7861 5 15.0007V5H19ZM12 19V18C12 16.35 10.65 15 9 15C7.35 15 6 16.35 6 18V19H12Z"/>
</symbol>

<symbol viewBox="0 0 24 24" id="back">
<path d="M5.00012 11L6.11988 9.88023C6.50988 9.49023 6.50988 8.86023 6.11988 8.47023C5.72988 8.08023 5.09988 8.08023 4.70988 8.47023L2.58988 10.5902C1.80988 11.3702 1.80988 12.6402 2.58988 13.4202L4.70988 15.5402C5.09988 15.9302 5.72988 15.9302 6.11988 15.5402C6.50988 15.1502 6.50988 14.5202 6.11988 14.1302L4.98965 13H20V16C20 16.55 20.45 17 21 17C21.55 17 22 16.55 22 16V13C22 11.9 21.1 11 20 11H5.00012Z"/>
</symbol>

<symbol viewBox="0 0 24 24" id="battery">
<path d="M11.7199 10.58H12.9199C13.3199 10.58 13.5399 10.94 13.2999 11.19L10.0399 14.86C9.70994 15.19 9.02994 14.91 9.19994 14.51L10.0699 12.68H9.08994C8.68994 12.68 8.46994 12.32 8.70994 12.07L11.2399 9.15003C11.5699 8.82003 12.2499 9.10003 12.0799 9.50003L11.7199 10.58Z"/>
<path fill-rule="evenodd" clip-rule="evenodd" d="M20 16V14C21.1 14 22 13.1 22 12C22 10.9 21.1 10 20 10V8C20 6.9 19.1 6 18 6H4C2.9 6 2 6.9 2 8V16C2 17.1 2.9 18 4 18H18C19.1 18 20 17.1 20 16ZM18 16H4V8H18V16Z"/>
</symbol>

<symbol viewBox="0 0 24 24" id="bell-alert">
<path fill-rule="evenodd" clip-rule="evenodd" d="M18.85 9.54738C20.1279 8.8796 21 7.54165 21 6C21 3.79086 19.2091 2 17 2C15.8163 2 14.7526 2.51419 14.0203 3.3314C13.3615 3.11099 12.6802 3.00054 12.005 3L12.01 3H12L12.005 3C8.58652 3.00275 5.01001 5.82275 5.01001 11.47C5.01001 14.1315 4.8469 15.8714 4.65244 17H4C3.45 17 3 17.45 3 18C3 18.55 3.45 19 4 19H10C10 20.1 10.9 21 12 21C13.1 21 14 20.1 14 19H20C20.55 19 21 18.55 21 18C21 17.45 20.55 17 20 17H19.3576C19.1631 15.8714 19 14.1315 19 11.47C19 10.7879 18.9478 10.147 18.85 9.54738ZM13.0927 5.13971C13.032 5.41681 13 5.70467 13 6C13 8.17451 14.7352 9.94375 16.8964 9.99868C16.964 10.456 17 10.9462 17 11.47C17 13.94 17.13 15.71 17.33 17H6.68001C6.87001 15.71 7.01001 13.94 7.01001 11.47C7.01001 7.02308 9.59643 5.0028 12.005 5C12.3667 5.00042 12.7324 5.04657 13.0927 5.13971Z"/>
</symbol>

<symbol viewBox="0 0 24 24" id="bell">
<path fill-rule="evenodd" clip-rule="evenodd" d="M19.3576 17C19.1631 15.8714 19 14.1315 19 11.47C19 5.82 15.42 3 12 3C8.58 3 5 5.82 5 11.47C5 14.1315 4.83689 15.8714 4.64243 17H4C3.45 17 3 17.45 3 18C3 18.55 3.45 19 4 19H10C10 20.1 10.9 21 12 21C13.1 21 14 20.1 14 19H20C20.55 19 21 18.55 21 18C21 17.45 20.55 17 20 17H19.3576ZM17 11.47C17 7.03 14.41 5 12 5C9.59 5 7 7.02 7 11.47C7 13.94 6.86 15.71 6.67 17H17.33C17.13 15.71 17 13.94 17 11.47Z"/>
</symbol>

<symbol viewBox="0 0 24 24" id="bolt">
<path d="M11.9202 4.44977L11.3002 6.60977L10.5702 9.15977H17.9902C17.9902 9.15977 17.9902 9.20977 17.9802 9.21977L9.13023 19.5698L10.7002 14.0698L11.4302 11.5198H6.00023C6.00023 11.5198 6.00023 11.4698 6.02023 11.4598L11.9202 4.45977M12.1502 2.00977C11.6802 2.00977 11.1902 2.20977 10.8002 2.67977L4.49023 10.1698C3.40023 11.4598 4.25023 13.5198 5.87023 13.5198H8.78023L7.10023 19.3998C6.69023 20.8398 7.76023 22.0098 8.90023 22.0098C9.37023 22.0098 9.85023 21.8098 10.2402 21.3498L19.5002 10.5298C20.6002 9.24977 19.7502 7.16977 18.1302 7.16977H13.2202L13.9502 4.61977C14.3602 3.16977 13.2902 2.00977 12.1502 2.00977V2.00977Z"/>
</symbol>

<symbol viewBox="0 0 24 24" id="bookmark">
<path d="M15.94 4C15.94 4 16 4.11 16 4.22V19.66L13.34 17.26L12 16.06L10.66 17.26L8 19.66V4.22C8 4.1 8.04 4.03 8.06 4H15.93M15.99 2H8C6.9 2 6 3 6 4.22V20.02C6 21.19 6.87 22 7.78 22C8.17 22 8.56 21.86 8.91 21.54L12 18.76L15.09 21.54C15.43 21.86 15.83 22 16.22 22C17.14 22 18 21.2 18 20.02V4.22C18 2.99 17.1 2 16 2H15.99Z"/>
</symbol>

<symbol viewBox="0 0 24 24" id="bubble-typing">
<path d="M7 10C7 9.45 7.45 9 8 9C8.55 9 9 9.45 9 10C9 10.55 8.55 11 8 11C7.45 11 7 10.55 7 10Z"/>
<path d="M12 9C11.45 9 11 9.45 11 10C11 10.55 11.45 11 12 11C12.55 11 13 10.55 13 10C13 9.45 12.55 9 12 9Z"/>
<path d="M15 10C15 9.45 15.45 9 16 9C16.55 9 17 9.45 17 10C17 10.55 16.55 11 16 11C15.45 11 15 10.55 15 10Z"/>
<path fill-rule="evenodd" clip-rule="evenodd" d="M4 3H20C21.1 3 22 3.9 22 5V15C22 16.1 21.1 17 20 17H12.36L8.31 20.51C7.92 20.85 7.46 21 7.01 21C5.98 21 5 20.19 5 19V17H4C2.9 17 2 16.1 2 15V5C2 3.9 2.9 3 4 3ZM11.61 15H20V5H4V15H7V19L11.05 15.49L11.61 15Z"/>
</symbol>

<symbol viewBox="0 0 24 24" id="bubble">
<path d="M20 5V15H11.61L11.05 15.49L7 19V15H4V5H20ZM20 3H4C2.9 3 2 3.9 2 5V15C2 16.1 2.9 17 4 17H5V19C5 20.19 5.98 21 7.01 21C7.46 21 7.92 20.85 8.31 20.51L12.36 17H20C21.1 17 22 16.1 22 15V5C22 3.9 21.1 3 20 3Z"/>
</symbol>

<symbol viewBox="0 0 24 24" id="burger">
<path d="M21 6H3C2.44772 6 2 6.44772 2 7C2 7.55228 2.44772 8 3 8H21C21.5523 8 22 7.55228 22 7C22 6.44772 21.5523 6 21 6Z"/>
<path d="M21 11H3C2.44772 11 2 11.4477 2 12C2 12.5523 2.44772 13 3 13H21C21.5523 13 22 12.5523 22 12C22 11.4477 21.5523 11 21 11Z"/>
<path d="M3 16H21C21.5523 16 22 16.4477 22 17C22 17.5523 21.5523 18 21 18H3C2.44772 18 2 17.5523 2 17C2 16.4477 2.44772 16 3 16Z"/>
</symbol>

<symbol viewBox="0 0 24 24" id="calendar">
<path d="M9 13C9 12.4477 8.55228 12 8 12C7.44772 12 7 12.4477 7 13C7 13.5523 7.44772 14 8 14C8.55228 14 9 13.5523 9 13Z"/>
<path d="M12 12C12.5523 12 13 12.4477 13 13C13 13.5523 12.5523 14 12 14C11.4477 14 11 13.5523 11 13C11 12.4477 11.4477 12 12 12Z"/>
<path d="M17 13C17 12.4477 16.5523 12 16 12C15.4477 12 15 12.4477 15 13C15 13.5523 15.4477 14 16 14C16.5523 14 17 13.5523 17 13Z"/>
<path d="M8 16C8.55228 16 9 16.4477 9 17C9 17.5523 8.55228 18 8 18C7.44772 18 7 17.5523 7 17C7 16.4477 7.44772 16 8 16Z"/>
<path d="M13 17C13 16.4477 12.5523 16 12 16C11.4477 16 11 16.4477 11 17C11 17.5523 11.4477 18 12 18C12.5523 18 13 17.5523 13 17Z"/>
<path d="M16 16C16.5523 16 17 16.4477 17 17C17 17.5523 16.5523 18 16 18C15.4477 18 15 17.5523 15 17C15 16.4477 15.4477 16 16 16Z"/>
<path fill-rule="evenodd" clip-rule="evenodd" d="M21 6C21 4.9 20.1 4 19 4C19 2.89543 18.1046 2 17 2C15.8954 2 15 2.89543 15 4H9C9 2.89543 8.10457 2 7 2C5.89543 2 5 2.89543 5 4C3.9 4 3 4.9 3 6V20C3 21.1 3.9 22 5 22H19C20.1 22 21 21.1 21 20V6ZM19 8V6H5V8H19ZM19 10H5V20H19V10Z"/>
</symbol>

<symbol viewBox="0 0 24 24" id="camera">
<path d="M14 13C14 14.1046 13.1046 15 12 15C10.8954 15 10 14.1046 10 13C10 11.8954 10.8954 11 12 11C13.1046 11 14 11.8954 14 13Z"/>
<path fill-rule="evenodd" clip-rule="evenodd" d="M9.44 4H14.56C15.42 4 16.19 4.55 16.46 5.37L16.67 6H20C21.1 6 22 6.9 22 8V18C22 19.1 21.1 20 20 20H4C2.9 20 2 19.1 2 18V8C2 6.9 2.9 6 4 6H7.33L7.54 5.37C7.81 4.55 8.58 4 9.44 4ZM14.77 6.63L14.56 6H9.44L9.23 6.63L8.77 8H4V18H20V8H15.23L14.77 6.63Z"/>
</symbol>

<symbol viewBox="0 0 24 24" id="card-add">
<path d="M17 10C17 10.5523 16.5523 11 16 11H15V12C15 12.5523 14.5523 13 14 13C13.4477 13 13 12.5523 13 12V11H12C11.4477 11 11 10.5523 11 10C11 9.44771 11.4477 9 12 9H13V8C13 7.44772 13.4477 7 14 7C14.5523 7 15 7.44772 15 8V9H16C16.5523 9 17 9.44771 17 10Z"/>
<path fill-rule="evenodd" clip-rule="evenodd" d="M9 3H19C20.1 3 21 3.9 21 5V15C21 16.1 20.1 17 19 17H17V19C17 20.1 16.1 21 15 21H5C3.9 21 3 20.1 3 19V9C3 7.9 3.9 7 5 7H7V5C7 3.9 7.9 3 9 3ZM9 15H19V5H9V15ZM7 9V15C7 16.1 7.9 17 9 17H15V19H5V9H7Z"/>
</symbol>

<symbol viewBox="0 0 24 24" id="card-check">
<path d="M13.2899 10.1L15.4099 7.98H15.4199C15.8099 7.59 16.4399 7.59 16.8299 7.98C17.2199 8.37 17.2199 9 16.8299 9.39L14.3599 11.86C13.7699 12.45 12.8099 12.45 12.2199 11.86L11.8799 11.51L11.1699 10.8C10.7799 10.41 10.7799 9.78 11.1699 9.39C11.5599 9 12.1899 9 12.5799 9.39L13.2899 10.1Z"/>
<path fill-rule="evenodd" clip-rule="evenodd" d="M19 3H9C7.9 3 7 3.9 7 5V7H5C3.9 7 3 7.9 3 9V19C3 20.1 3.9 21 5 21H15C16.1 21 17 20.1 17 19V17H19C20.1 17 21 16.1 21 15V5C21 3.9 20.1 3 19 3ZM19 5V15H9V5H19ZM7 15V9H5V19H15V17H9C7.9 17 7 16.1 7 15Z"/>
</symbol>

<symbol viewBox="0 0 24 24" id="card-delete">
<path d="M14.7064 12.1197C15.097 12.5102 15.7301 12.5102 16.1206 12.1197C16.5112 11.7291 16.5112 11.096 16.1206 10.7055L15.4151 9.99992L16.1228 9.29225C16.5133 8.90173 16.5133 8.26856 16.1228 7.87804C15.7323 7.48751 15.0991 7.48751 14.7086 7.87804L14.0009 8.58571L13.2922 7.87703C12.9017 7.4865 12.2685 7.4865 11.878 7.87703C11.4875 8.26755 11.4875 8.90072 11.878 9.29124L12.5867 9.99992L11.8801 10.7065C11.4896 11.097 11.4896 11.7302 11.8801 12.1207C12.2707 12.5112 12.9038 12.5112 13.2944 12.1207L14.0009 11.4141L14.7064 12.1197Z"/>
<path fill-rule="evenodd" clip-rule="evenodd" d="M9 3H19C20.1 3 21 3.9 21 5V15C21 16.1 20.1 17 19 17H17V19C17 20.1 16.1 21 15 21H5C3.9 21 3 20.1 3 19V9C3 7.9 3.9 7 5 7H7V5C7 3.9 7.9 3 9 3ZM19 15V5H9V15H19ZM7 9V15C7 16.1 7.9 17 9 17H15V19H5V9H7Z"/>
</symbol>

<symbol viewBox="0 0 24 24" id="card-sub">
<path d="M16 11C16.5523 11 17 10.5523 17 10C17 9.44771 16.5523 9 16 9H12C11.4477 9 11 9.44771 11 10C11 10.5523 11.4477 11 12 11H16Z"/>
<path fill-rule="evenodd" clip-rule="evenodd" d="M19 3H9C7.9 3 7 3.9 7 5V7H5C3.9 7 3 7.9 3 9V19C3 20.1 3.9 21 5 21H15C16.1 21 17 20.1 17 19V17H19C20.1 17 21 16.1 21 15V5C21 3.9 20.1 3 19 3ZM19 15H9V5H19V15ZM15 17H9C7.9 17 7 16.1 7 15V9H5V19H15V17Z"/>
</symbol>

<symbol viewBox="0 0 24 24" id="card">
<path d="M12 8H7C6.44772 8 6 8.44771 6 9C6 9.55228 6.44772 10 7 10H12C12.5523 10 13 9.55228 13 9C13 8.44771 12.5523 8 12 8Z"/>
<path d="M7 12H10C10.5523 12 11 12.4477 11 13C11 13.5523 10.5523 14 10 14H7C6.44772 14 6 13.5523 6 13C6 12.4477 6.44772 12 7 12Z"/>
<path d="M16 10C16.5523 10 17 9.55228 17 9C17 8.44771 16.5523 8 16 8C15.4477 8 15 8.44771 15 9C15 9.55228 15.4477 10 16 10Z"/>
<path d="M19 14C19 12.34 17.66 11 16 11C14.34 11 13 12.34 13 14C13 15.1 13.9 16 15 16H17C18.1 16 19 15.1 19 14Z"/>
<path fill-rule="evenodd" clip-rule="evenodd" d="M20 4H4C2.9 4 2 4.9 2 6V18C2 19.1 2.9 20 4 20H20C21.1 20 22 19.1 22 18V6C22 4.9 21.1 4 20 4ZM4 6H20V18H4V6Z"/>
</symbol>

<symbol viewBox="0 0 24 24" id="chain">
<path d="M10 15H4V9H10C10.55 9 11 8.55 11 8C11 7.45 10.55 7 10 7H4C2.9 7 2 7.9 2 9V15C2 16.1 2.9 17 4 17H10C10.55 17 11 16.55 11 16C11 15.45 10.55 15 10 15Z"/>
<path d="M13 8C13 8.55 13.45 9 14 9H20V15H14C13.45 15 13 15.45 13 16C13 16.55 13.45 17 14 17H20C21.1 17 22 16.1 22 15V9C22 7.9 21.1 7 20 7H14C13.45 7 13 7.45 13 8Z"/>
<path d="M9 11H15C15.55 11 16 11.45 16 12C16 12.55 15.55 13 15 13H9C8.45 13 8 12.55 8 12C8 11.45 8.45 11 9 11Z"/>
</symbol>

<symbol viewBox="0 0 24 24" id="chat">
<path d="M16 7H8C7.45 7 7 7.45 7 8C7 8.55 7.45 9 8 9H16C16.55 9 17 8.55 17 8C17 7.45 16.55 7 16 7Z"/>
<path d="M8 11H16C16.55 11 17 11.45 17 12C17 12.55 16.55 13 16 13H8C7.45 13 7 12.55 7 12C7 11.45 7.45 11 8 11Z"/>
<path fill-rule="evenodd" clip-rule="evenodd" d="M20 3H4C2.9 3 2 3.9 2 5V15C2 16.1 2.9 17 4 17H5V19C5 20.19 5.98 21 7.01 21C7.46 21 7.92 20.85 8.31 20.51L12.36 17H20C21.1 17 22 16.1 22 15V5C22 3.9 21.1 3 20 3ZM20 5V15H11.61L11.05 15.49L7 19V15H4V5H20Z"/>
</symbol>

<symbol viewBox="0 0 24 24" id="chats">
<path d="M13 12.02C13.5523 12.02 14 12.4677 14 13.02C14 13.5723 13.5523 14.02 13 14.02H7C6.44772 14.02 6 13.5723 6 13.02C6 12.4677 6.44772 12.02 7 12.02H13Z"/>
<path fill-rule="evenodd" clip-rule="evenodd" d="M8 3H20C21.1 3 22 3.9 22 5V11C22 12.1 21.1 13 20 13H18V15.97C18 17.07 17.1 17.97 16 17.97H9.86L6.79 20.63C6.5 20.88 6.15 21 5.81 21C5.02 21 4.28 20.39 4.28 19.48V17.97H4C2.9 17.97 2 17.07 2 15.97V10C2 8.9 2.9 8 4 8H6V5C6 3.9 6.9 3 8 3ZM8 8H16C17.1 8 18 8.9 18 10V11H20V5H8V8ZM16 15.97V10H4V15.97H6.28V18.43L8.55 16.46L9.11 15.97H16Z"/>
</symbol>

<symbol viewBox="0 0 24 24" id="clock">
<path d="M11 8C11 7.45 11.45 7 12 7C12.55 7 13 7.45 13 8V11H17C17.55 11 18 11.45 18 12C18 12.55 17.55 13 17 13H13C11.9 13 11 12.1 11 11V8Z"/>
<path fill-rule="evenodd" clip-rule="evenodd" d="M2 12C2 6.48 6.48 2 12 2C17.52 2 22 6.48 22 12C22 17.52 17.52 22 12 22C6.48 22 2 17.52 2 12ZM20 12C20 7.59 16.41 4 12 4C7.59 4 4 7.59 4 12C4 16.41 7.59 20 12 20C16.41 20 20 16.41 20 12Z"/>
</symbol>

<symbol viewBox="0 0 24 24" id="close">
<path d="M4 9C3.45 9 3 8.55 3 8C3 7.45 3.45 7 4 7H7V4C7 3.45 7.45 3 8 3C8.55 3 9 3.45 9 4V7C9 8.1 8.1 9 7 9H4Z"/>
<path d="M20 9H17C15.9 9 15 8.1 15 7V4C15 3.45 15.45 3 16 3C16.55 3 17 3.45 17 4V7H20C20.55 7 21 7.45 21 8C21 8.55 20.55 9 20 9Z"/>
<path d="M7 17V20C7 20.55 7.45 21 8 21C8.55 21 9 20.55 9 20V17C9 15.9 8.1 15 7 15H4C3.45 15 3 15.45 3 16C3 16.55 3.45 17 4 17H7Z"/>
<path d="M17 17V20C17 20.55 16.55 21 16 21C15.45 21 15 20.55 15 20V17C15 15.9 15.9 15 17 15H20C20.55 15 21 15.45 21 16C21 16.55 20.55 17 20 17H17Z"/>
</symbol>

<symbol viewBox="0 0 24 24" id="code">
<path d="M17,17c-.26,0-.51-.1-.71-.29-.39-.39-.39-1.02,0-1.41l3.29-3.29-3.29-3.29c-.39-.39-.39-1.02,0-1.41s1.02-.39,1.41,0l4,4c.39,.39,.39,1.02,0,1.41l-4,4c-.2,.2-.45,.29-.71,.29Z"/>
<path d="M7,17c-.26,0-.51-.1-.71-.29L2.29,12.71c-.39-.39-.39-1.02,0-1.41L6.29,7.29c.39-.39,1.02-.39,1.41,0s.39,1.02,0,1.41l-3.29,3.29,3.29,3.29c.39,.39,.39,1.02,0,1.41-.2,.2-.45,.29-.71,.29Z"/>
<path d="M11,19c-.05,0-.11,0-.17-.01-.54-.09-.91-.61-.82-1.15l2-12c.09-.54,.61-.91,1.15-.82,.54,.09,.91,.61,.82,1.15l-2,12c-.08,.49-.5,.84-.99,.84Z"/>
</symbol>

<symbol viewBox="0 0 24 24" id="coffee">
<path d="M9.00049 3C9.00049 2.45 9.45049 2 10.0005 2C10.5505 2 11.0005 2.45 11.0005 3V6C11.0005 6.55 10.5505 7 10.0005 7C9.45049 7 9.00049 6.55 9.00049 6V3Z"/>
<path fill-rule="evenodd" clip-rule="evenodd" d="M4.09038 9H15.8904C17.1904 9 18.1704 10.11 17.9604 11.33L17.872 11.8398H18.3404C20.5704 11.8398 22.2904 13.8098 21.9704 16.0198C21.7104 17.8298 20.1604 19.1698 18.3404 19.1698H14.9692C14.5305 19.5489 14.0447 19.8777 13.5221 20.1478C13.8085 20.3242 14.0005 20.6408 14.0005 21C14.0005 21.55 13.5505 22 13.0005 22H7.00049C6.45049 22 6.00049 21.55 6.00049 21C6.00049 20.6446 6.18838 20.331 6.46972 20.1535C4.50672 19.1428 3.06097 17.3063 2.67038 15.08L2.02038 11.33C1.81038 10.11 2.80038 9 4.09038 9ZM15.9904 11.02C15.9704 11.01 15.9004 11 15.9004 11H4.10038C4.05038 11 4.01039 11.02 4.01039 11.02L4.66038 14.73C5.09038 17.2 7.34038 18.99 10.0004 18.99C12.6604 18.99 14.9104 17.2 15.3404 14.73L15.9904 11.02ZM19.6004 14.4098C19.4104 14.1998 19.0004 13.8398 18.3404 13.8398H17.7904L16.8404 17.1698H18.3404C19.1704 17.1698 19.8704 16.5498 19.9904 15.7398C20.0804 15.0798 19.7904 14.6198 19.6004 14.4098Z"/>
<path d="M6.00049 2C5.45049 2 5.00049 2.45 5.00049 3V6C5.00049 6.55 5.45049 7 6.00049 7C6.55049 7 7.00049 6.55 7.00049 6V3C7.00049 2.45 6.55049 2 6.00049 2Z"/>
<path d="M13.0005 3C13.0005 2.45 13.4505 2 14.0005 2C14.5505 2 15.0005 2.45 15.0005 3V6C15.0005 6.55 14.5505 7 14.0005 7C13.4505 7 13.0005 6.55 13.0005 6V3Z"/>
</symbol>

<symbol viewBox="0 0 24 24" id="copy">
<path fill-rule="evenodd" clip-rule="evenodd" d="M10 2H18C19.1 2 20 2.9 20 4V16C20 17.1 19.1 18 18 18H16V20C16 21.1 15.1 22 14 22H6C4.9 22 4 21.1 4 20V8C4 6.9 4.9 6 6 6H8V4C8 2.9 8.9 2 10 2ZM18 16V4H10V16H18ZM8 8V16C8 17.1 8.9 18 10 18H14V20H6V8H8Z"/>
</symbol>

<symbol viewBox="0 0 24 24" id="current-location">
<path d="M14 12C14 13.1046 13.1046 14 12 14C10.8954 14 10 13.1046 10 12C10 10.8954 10.8954 10 12 10C13.1046 10 14 10.8954 14 12Z"/>
<path fill-rule="evenodd" clip-rule="evenodd" d="M12 2C12.5523 2 13 2.44772 13 3V4.06182C16.62 4.51275 19.4872 7.37997 19.9382 11H21C21.5523 11 22 11.4477 22 12C22 12.5523 21.5523 13 21 13H19.9382C19.4872 16.62 16.62 19.4872 13 19.9382V21C13 21.5523 12.5523 22 12 22C11.4477 22 11 21.5523 11 21V19.9382C7.37997 19.4872 4.51275 16.62 4.06182 13H3C2.44772 13 2 12.5523 2 12C2 11.4477 2.44772 11 3 11H4.06182C4.51275 7.37997 7.37997 4.51275 11 4.06182V3C11 2.44772 11.4477 2 12 2ZM11 6.08322C8.49007 6.50553 6.50553 8.49007 6.08322 11H7C7.55228 11 8 11.4477 8 12C8 12.5523 7.55228 13 7 13H6.08322C6.50553 15.5099 8.49007 17.4945 11 17.9168V17C11 16.4477 11.4477 16 12 16C12.5523 16 13 16.4477 13 17V17.9168C15.5099 17.4945 17.4945 15.5099 17.9168 13H17C16.4477 13 16 12.5523 16 12C16 11.4477 16.4477 11 17 11H17.9168C17.4945 8.49007 15.5099 6.50553 13 6.08322V7C13 7.55228 12.5523 8 12 8C11.4477 8 11 7.55228 11 7V6.08322Z"/>
</symbol>

<symbol viewBox="0 0 24 24" id="down">
<path d="M12,16.5c-0.3,0-0.5-0.1-0.7-0.3l-7-7c-0.4-0.4-0.4-1,0-1.4s1-0.4,1.4,0l6.3,6.3l6.3-6.3c0.4-0.4,1-0.4,1.4,0c0.4,0.4,0.4,1,0,1.4l-7,7C12.5,16.4,12.2,16.5,12,16.5L12,16.5z"/>
</symbol>

<symbol viewBox="0 0 24 24" id="download">
<path d="M8.45998 12.8799C8.06998 13.2699 8.06998 13.8999 8.45998 14.2899L10.58 16.4099C11.36 17.1899 12.63 17.1899 13.41 16.4099L15.53 14.2899C15.92 13.8999 15.92 13.2699 15.53 12.8799C15.14 12.4899 14.51 12.4899 14.12 12.8799L13 13.9999V8C13 7.44772 12.5523 7 12 7C11.4477 7 11 7.44772 11 8V13.9999L9.87998 12.8799C9.48998 12.4899 8.85998 12.4899 8.46998 12.8799H8.45998Z"/>
<path fill-rule="evenodd" clip-rule="evenodd" d="M12 2C6.48 2 2 6.48 2 12C2 17.52 6.48 22 12 22C17.52 22 22 17.52 22 12C22 6.48 17.52 2 12 2ZM12 4C16.41 4 20 7.59 20 12C20 16.41 16.41 20 12 20C7.59 20 4 16.41 4 12C4 7.59 7.59 4 12 4Z"/>
</symbol>

<symbol viewBox="0 0 24 24" id="edit">
<path fill-rule="evenodd" clip-rule="evenodd" d="M15.4998 3C15.4998 3 15.4998 3 15.4998 3C14.9898 3 14.4797 3.2 14.0897 3.59L3.57979 14.0902C3.18979 14.4802 2.96979 15.0202 2.99979 15.5802L3.12979 18.9502C3.16979 20.0002 4.00979 20.8302 5.04979 20.8702L8.41979 21.0002H8.49979C9.02979 21.0002 9.53979 20.7902 9.90979 20.4102L18.3559 11.9641C18.3984 11.9281 18.4397 11.89 18.4797 11.85L20.4097 9.92C20.7964 9.53333 20.9914 9.02625 20.9947 8.51814C21.0006 7.99803 20.8056 7.47604 20.4098 7.08023L16.9098 3.58023C16.5198 3.19023 16.0098 2.99023 15.4998 2.99023V3ZM18.9996 8.50008L15.4998 5.00023L13.5699 6.93016L17.0697 10.43L18.9996 8.50008ZM15.6549 11.8452L12.1597 8.35C12.1581 8.34839 12.1565 8.34677 12.1549 8.34515L4.99979 15.5002L5.12979 18.8702L8.49979 19.0002L15.6549 11.8452Z"/>
</symbol>

<symbol viewBox="0 0 24 24" id="email">
<path fill-rule="evenodd" clip-rule="evenodd" d="M22 18C22 19.1 21.1 20 20 20H4C2.9 20 2 19.1 2 18V6C2 4.9 2.9 4 4 4H20C21.1 4 22 4.9 22 6V18ZM19.31 6H4.69L12 13.31L19.31 6ZM20 18V8.14L13.41 14.73C13.02 15.12 12.51 15.32 12 15.32C11.49 15.32 10.98 15.12 10.59 14.73L4 8.14V18H20Z"/>
</symbol>

<symbol viewBox="0 0 24 24" id="error">
<path d="M13 10C13 9.44771 12.5523 9 12 9C11.4477 9 11 9.44771 11 10V14C11 14.5523 11.4477 15 12 15C12.5523 15 13 14.5523 13 14V10Z"/>
<path d="M13 17C13 17.5523 12.5523 18 12 18C11.4477 18 11 17.5523 11 17C11 16.4477 11.4477 16 12 16C12.5523 16 13 16.4477 13 17Z"/>
<path fill-rule="evenodd" clip-rule="evenodd" d="M12 2C11.29 2 10.58 2.37 10.21 3.11L2.21003 19.11C1.55003 20.44 2.51003 22 4.00003 22H19.99C21.48 22 22.44 20.44 21.78 19.11L13.79 3.11C13.42 2.37 12.71 2 12 2ZM12 4L20 20H4.00003L11.99 4H12Z"/>
</symbol>

<symbol viewBox="0 0 24 24" id="exit">
<path d="M12.0073 10.5506L19.2694 3.2885C19.656 2.90188 20.2828 2.90188 20.6694 3.2885L20.7189 3.338C21.1056 3.72462 21.1056 4.35145 20.7189 4.73807L13.4568 12.0002L20.7189 19.2623C21.1056 19.6489 21.1056 20.2757 20.7189 20.6623L20.6694 20.7118C20.2828 21.0984 19.656 21.0984 19.2694 20.7118L12.0073 13.4497L4.74539 20.7116C4.35877 21.0982 3.73194 21.0982 3.34532 20.7116L3.29582 20.6621C2.9092 20.2755 2.9092 19.6487 3.29582 19.262L10.5577 12.0002L3.29582 4.73829C2.9092 4.35167 2.9092 3.72483 3.29582 3.33821L3.34532 3.28872C3.73194 2.9021 4.35877 2.9021 4.74539 3.28872L12.0073 10.5506Z"/>
</symbol>

<symbol viewBox="0 0 24 24" id="folder-add">
<path d="M14 16C14 16.5523 14.4477 17 15 17C15.5523 17 16 16.5523 16 16V15H17C17.5523 15 18 14.5523 18 14C18 13.4477 17.5523 13 17 13H16V12C16 11.4477 15.5523 11 15 11C14.4477 11 14 11.4477 14 12V13H13C12.4477 13 12 13.4477 12 14C12 14.5523 12.4477 15 13 15H14V16Z"/>
<path fill-rule="evenodd" clip-rule="evenodd" d="M16.3849 7L14.2 3.89C13.81 3.33 13.15 3 12.45 3H4.11C2.95 3 2 3.9 2 5V19C2 20.1 2.9 21 4 21H20C21.1 21 22 20.1 22 19V9C22 7.9 21.1 7 20 7H16.3849ZM12.56 5.04C12.56 5.03 12.52 5 12.45 5H4.1C4.02 5 3.99 5.04 3.99 5.04V7H13.94L12.56 5.04ZM4 9V19H20V9H4Z"/>
</symbol>

<symbol viewBox="0 0 24 24" id="folder-delete">
<path d="M12 14C12 13.4477 12.4477 13 13 13H17C17.5523 13 18 13.4477 18 14C18 14.5523 17.5523 15 17 15H13C12.4477 15 12 14.5523 12 14Z"/>
<path fill-rule="evenodd" clip-rule="evenodd" d="M14.2 3.89L16.3849 7H20C21.1 7 22 7.9 22 9V19C22 20.1 21.1 21 20 21H4C2.9 21 2 20.1 2 19V5C2 3.9 2.95 3 4.11 3H12.45C13.15 3 13.81 3.33 14.2 3.89ZM12.45 5C12.52 5 12.56 5.03 12.56 5.04L13.94 7H3.99V5.04C3.99 5.04 4.02 5 4.1 5H12.45ZM4 9H20V19H4V9Z"/>
</symbol>

<symbol viewBox="0 0 24 24" id="folder">
<path fill-rule="evenodd" clip-rule="evenodd" d="M16.3849 7L14.2 3.89C13.81 3.33 13.15 3 12.45 3H4.11C2.95 3 2 3.9 2 5V19C2 20.1 2.9 21 4 21H20C21.1 21 22 20.1 22 19V9C22 7.9 21.1 7 20 7H16.3849ZM12.56 5.04C12.56 5.03 12.52 5 12.45 5H4.1C4.02 5 3.99 5.04 3.99 5.04V7H13.94L12.56 5.04ZM4 9V19H20V9H4Z"/>
</symbol>

<symbol viewBox="0 0 24 24" id="heart">
<path d="M6.74023 5C8.03023 5 9.42023 5.68 10.5402 6.88L12.0002 8.43L13.4602 6.88C14.5802 5.69 15.9702 5 17.2602 5C18.9802 5 20.0002 6.14 20.0002 8.06C20.0002 12.52 13.9102 17.52 12.0002 18.99C10.0902 17.53 4.00023 12.53 4.00023 8.06C4.00023 6.14 5.03023 5 6.74023 5M17.2502 3C15.5202 3 13.6002 3.8 11.9902 5.51C10.3902 3.81 8.46023 3 6.73023 3C4.14023 3 1.99023 4.8 1.99023 8.06C1.99023 13.32 8.16023 18.58 10.8102 20.6C11.1602 20.87 11.5802 21 11.9902 21C12.4002 21 12.8202 20.87 13.1702 20.6C15.8202 18.58 21.9902 13.32 21.9902 8.06C21.9902 4.8 19.8302 3 17.2502 3V3Z"/>
</symbol>

<symbol viewBox="0 0 24 24" id="house">
<path d="M13.0002 9C13.0002 9.55228 12.5525 10 12.0002 10C11.448 10 11.0002 9.55228 11.0002 9C11.0002 8.44771 11.448 8 12.0002 8C12.5525 8 13.0002 8.44771 13.0002 9Z"/>
<path fill-rule="evenodd" clip-rule="evenodd" d="M13.4103 3.58C13.0203 3.19 12.5103 3 12.0003 3C11.4903 3 10.9803 3.19 10.5903 3.58L3.30031 11.31C2.91031 11.7 2.91031 12.32 3.30031 12.71C3.49402 12.9037 3.74694 13.0012 4.00024 13.0025V19C4.00024 20.1 4.90024 21 6.00024 21H18.0002C19.1002 21 20.0002 20.1 20.0002 19V13.0025C20.2536 13.0012 20.5066 12.9037 20.7003 12.71C21.0903 12.32 21.0903 11.7 20.7003 11.31L13.4103 3.58ZM13.0002 15V19H11.0002V15C11.0002 14.4523 11.4525 14 12.0002 14C12.548 14 13.0002 14.4523 13.0002 15ZM15.0002 15V19H18.0002V11.3421L12.0003 4.98L6.00024 11.3422V19H9.00024V15C9.00024 13.3477 10.348 12 12.0002 12C13.6525 12 15.0002 13.3477 15.0002 15Z"/>
</symbol>

<symbol viewBox="0 0 24 24" id="image">
<path d="M17 9C17 9.55228 16.5523 10 16 10C15.4477 10 15 9.55228 15 9C15 8.44771 15.4477 8 16 8C16.5523 8 17 8.44771 17 9Z"/>
<path fill-rule="evenodd" clip-rule="evenodd" d="M20 4H4C2.9 4 2 4.9 2 6V18C2 19.1 2.9 20 4 20H20C21.1 20 22 19.1 22 18V6C22 4.9 21.1 4 20 4ZM20 6V16.4209L17.7167 13.9336C16.5476 12.661 14.539 12.6423 13.3457 13.878L11.6299 10.7402C11.0999 9.78018 10.0899 9.18018 8.99988 9.18018C7.90988 9.18018 6.88988 9.78018 6.36988 10.7402L4 15.0887V6H20ZM16.2436 15.2863L18.7347 18H12.2753L14.7664 15.2863C15.1602 14.8577 15.8498 14.8577 16.2436 15.2863ZM11.9217 15.4278L9.56038 18H4.69656L8.12988 11.7002C8.38988 11.2302 8.82988 11.1802 9.00988 11.1802C9.18988 11.1802 9.62988 11.2302 9.88988 11.7002L11.9217 15.4278Z"/>
</symbol>

<symbol viewBox="0 0 24 24" id="left">
<path d="M7.5,12c0-0.3,0.1-0.5,0.3-0.7l7-7c0.4-0.4,1-0.4,1.4,0s0.4,1,0,1.4L9.9,12l6.3,6.3c0.4,0.4,0.4,1,0,1.4s-1,0.4-1.4,0l-7-7C7.6,12.5,7.5,12.2,7.5,12L7.5,12z"/>
</symbol>

<symbol viewBox="0 0 24 24" id="location">
<path d="M14 11C14 12.1046 13.1046 13 12 13C10.8954 13 10 12.1046 10 11C10 9.89543 10.8954 9 12 9C13.1046 9 14 9.89543 14 11Z"/>
<path fill-rule="evenodd" clip-rule="evenodd" d="M3 11C3 6.03 7.03 2 12 2C16.97 2 21 6.03 21 11C21 17.44 14.64 22 12 22C9.36 22 3 17.44 3 11ZM19 11C19 7.14 15.86 4 12 4C8.14 4 5 7.14 5 11C5 16.51 10.6 20 12 20C13.4 20 19 16.51 19 11Z"/>
</symbol>

<symbol viewBox="0 0 24 24" id="map">
<path d="M7 15C7.55228 15 8 14.5523 8 14C8 13.4477 7.55228 13 7 13C6.44772 13 6 13.4477 6 14C6 14.5523 6.44772 15 7 15Z"/>
<path d="M11 11C11 11.5523 10.5523 12 10 12C9.44771 12 9 11.5523 9 11C9 10.4477 9.44771 10 10 10C10.5523 10 11 10.4477 11 11Z"/>
<path d="M16.3757 12.7005C16.7662 13.091 17.3994 13.091 17.7899 12.7005C18.1804 12.3099 18.1804 11.6768 17.7899 11.2863L17.0786 10.575L17.7823 9.87132C18.1728 9.4808 18.1728 8.84763 17.7823 8.45711C17.3917 8.06658 16.7586 8.06658 16.3681 8.45711L15.6644 9.16077L14.9615 8.45783C14.5709 8.06731 13.9378 8.06731 13.5472 8.45783C13.1567 8.84836 13.1567 9.48152 13.5472 9.87205L14.2502 10.575L13.5396 11.2855C13.1491 11.6761 13.1491 12.3092 13.5396 12.6997C13.9302 13.0903 14.5633 13.0903 14.9538 12.6997L15.6644 11.9892L16.3757 12.7005Z"/>
<path fill-rule="evenodd" clip-rule="evenodd" d="M7.47 3.00023C7.24 3.00023 7 3.04023 6.78 3.12023L3.32 4.39023C2.53 4.68023 2 5.45023 2 6.31023V18.3002C2 19.4702 2.94 20.3402 4 20.3402C4.22 20.3402 4.45 20.3002 4.68 20.2202L7.56 19.1602L11.17 20.8202C11.43 20.9402 11.72 21.0002 12 21.0002C12.28 21.0002 12.57 20.9402 12.84 20.8202L16.42 19.1702L19.33 20.2302C19.56 20.3102 19.78 20.3502 20.01 20.3502C21.07 20.3502 22.01 19.4702 22.01 18.3102V6.31023C22.01 5.45023 21.48 4.68023 20.68 4.39023L17.2 3.12023C16.98 3.04023 16.75 3.00023 16.51 3.00023C16.22 3.00023 15.94 3.06023 15.67 3.18023L12 4.87023L8.3 3.17023C8.04 3.05023 7.75 2.99023 7.47 2.99023V3.00023ZM7.47 5.00023L11.16 6.70023L12 7.08023L12.84 6.69023L16.51 5.00023L20 6.31023V18.3402L17.11 17.2802L16.33 17.0002L15.58 17.3502L12 19.0002L8.39 17.3402L7.64 17.0002L6.87 17.2802L4 18.2902V6.27023L7.47 5.00023Z"/>
</symbol>

<symbol viewBox="0 0 24 24" id="message">
<path fill-rule="evenodd" clip-rule="evenodd" d="M19.3697 2.11C19.5897 2.03 19.7997 2 20.0097 2C21.2997 2 22.3397 3.29 21.8897 4.63L16.5497 20.63C16.2597 21.5 15.4597 21.99 14.6497 21.99C14.1497 21.99 13.6497 21.81 13.2497 21.41L2.5797 10.74C1.5297 9.69 1.9497 7.91 3.3597 7.44L19.3697 2.11ZM14.6597 20.01L19.9997 4L3.9897 9.33L8.34373 13.6881L12.7698 11.23L10.311 15.6572L14.6597 20.01Z"/>
</symbol>

<symbol viewBox="0 0 24 24" id="meter">
<path d="M12.9996 5.00023C12.9996 5.55023 12.5496 6.00023 11.9996 6.00023V6.01023C11.4496 6.01023 10.9996 5.56023 10.9996 5.01023V4.08023C9.53959 4.26023 8.20959 4.84023 7.09959 5.70023L7.74959 6.36023C8.13959 6.75023 8.13959 7.38023 7.74959 7.77023C7.54959 7.96023 7.29959 8.06024 7.03959 8.06024C6.77959 8.06024 6.52959 7.97023 6.32959 7.77023L5.67959 7.11023C4.81959 8.22023 4.23959 9.55023 4.05959 11.0102H4.98959C5.53959 11.0102 5.98959 11.4602 5.98959 12.0102C5.98959 12.5602 5.53959 13.0102 4.98959 13.0102H4.05959C4.23959 14.4702 4.81959 15.8002 5.67959 16.9102L6.32959 16.2502C6.52959 16.0602 6.77959 15.9602 7.03959 15.9602C7.29959 15.9602 7.54959 16.0502 7.74959 16.2502C8.13959 16.6402 8.13959 17.2702 7.74959 17.6602L6.93959 18.4702C6.18959 19.2202 4.93959 19.1602 4.25959 18.3302C2.58959 16.2902 1.70959 13.5702 2.08959 10.6502C2.67959 6.17023 6.34959 2.57023 10.8396 2.06023C11.2296 2.01023 11.6196 1.99023 11.9996 1.99023C12.3796 2.00023 12.7696 2.02023 13.1596 2.06023C17.6496 2.57023 21.3196 6.17023 21.9096 10.6502C22.2896 13.5702 21.4096 16.2902 19.7396 18.3302C19.0596 19.1602 17.8196 19.2202 17.0596 18.4602L16.2496 17.6502C15.8596 17.2602 15.8596 16.6302 16.2496 16.2402C16.4496 16.0502 16.6996 15.9502 16.9596 15.9502C17.2196 15.9502 17.4696 16.0402 17.6696 16.2402L18.3196 16.9002C19.1796 15.7902 19.7596 14.4602 19.9396 13.0002H19.0096C18.4596 13.0002 18.0096 12.5502 18.0096 12.0002C18.0096 11.4502 18.4596 11.0002 19.0096 11.0002H19.9396C19.7596 9.54023 19.1796 8.21023 18.3196 7.10023L17.6696 7.76023C17.4696 7.95023 17.2196 8.05023 16.9596 8.05023C16.6996 8.05023 16.4496 7.96023 16.2496 7.76023C15.8596 7.37023 15.8596 6.74023 16.2496 6.35023L16.8996 5.69023C15.7896 4.83023 14.4596 4.25023 12.9996 4.07023V5.00023Z"/>
<path d="M14.7066 10.7071C15.0971 10.3166 15.0971 9.68342 14.7066 9.29289C14.3161 8.90237 13.6829 8.90237 13.2924 9.29289L11.2924 11.2929C10.9019 11.6834 10.9019 12.3166 11.2924 12.7071C11.6829 13.0976 12.3161 13.0976 12.7066 12.7071L14.7066 10.7071Z"/>
</symbol>

<symbol viewBox="0 0 24 24" id="microphone">
<path fill-rule="evenodd" clip-rule="evenodd" d="M12.0002 2C9.79024 2 8.00024 3.79 8.00024 6V11C8.00024 13.21 9.79024 15 12.0002 15C14.2102 15 16.0002 13.21 16.0002 11V6C16.0002 3.79 14.2102 2 12.0002 2ZM12.0002 4C13.1002 4 14.0002 4.9 14.0002 6V11C14.0002 12.1 13.1002 13 12.0002 13C10.9002 13 10.0002 12.1 10.0002 11V6C10.0002 4.9 10.9002 4 12.0002 4Z"/>
<path d="M11.0002 18.9292C7.82039 18.4721 5.60036 15.8729 5.11024 13.15C5.00024 12.55 5.49024 12 6.10024 12C6.59024 12 6.99024 12.35 7.08024 12.83C7.47024 14.97 9.35024 17 12.0002 17C14.6502 17 16.5302 14.97 16.9202 12.83C17.0102 12.35 17.4102 12 17.9002 12C18.5102 12 19.0002 12.55 18.8902 13.15C18.3911 15.8728 16.1785 18.472 13.0002 18.9291V20H15.0002C15.5502 20 16.0002 20.45 16.0002 21C16.0002 21.55 15.5502 22 15.0002 22H9.00024C8.45024 22 8.00024 21.55 8.00024 21C8.00024 20.45 8.45024 20 9.00024 20H11.0002V18.9292Z"/>
</symbol>

<symbol viewBox="0 0 24 24" id="minus">
<path d="M20 13C20.5523 13 21 12.5523 21 12C21 11.4477 20.5523 11 20 11L4 11C3.44772 11 3 11.4477 3 12C3 12.5523 3.44772 13 4 13H20Z"/>
</symbol>

<symbol viewBox="0 0 24 24" id="move">
<path d="M15.54 4.70988C15.93 5.09988 15.93 5.72988 15.54 6.11988H15.53C15.14 6.50988 14.51 6.50988 14.12 6.11988L12 3.99988C12.55 3.99988 13 4.45 13 5V11H18.9997L17.8799 9.88023C17.4899 9.49023 17.4899 8.86023 17.8799 8.47023C18.2699 8.08023 18.8999 8.08023 19.2899 8.47023L21.4099 10.5902C22.1899 11.3702 22.1899 12.6402 21.4099 13.4202L19.2899 15.5402C18.8999 15.9302 18.2699 15.9302 17.8799 15.5402V15.5302C17.4899 15.1402 17.4899 14.5102 17.8799 14.1202L19.0001 13C19.0001 13 19.0002 13 19.0001 13H13V18.9999L14.12 17.8799C14.51 17.4899 15.14 17.4899 15.53 17.8799H15.54C15.93 18.2699 15.93 18.8999 15.54 19.2899L13.42 21.4099C12.64 22.1899 11.37 22.1899 10.59 21.4099L8.46999 19.2899C8.07999 18.8999 8.07999 18.2699 8.46999 17.8799C8.85999 17.4899 9.48999 17.4899 9.87999 17.8799L11 18.9999V13H5C4.45004 13 4.00006 12.5501 4 12.0001L6.11988 14.1202C6.50988 14.5102 6.50988 15.1402 6.11988 15.5302V15.5402C5.72988 15.9302 5.09988 15.9302 4.70988 15.5402L2.58988 13.4202C1.80988 12.6402 1.80988 11.3702 2.58988 10.5902L4.70988 8.47023C5.09988 8.08023 5.72988 8.08023 6.11988 8.47023C6.50988 8.86023 6.50988 9.49023 6.11988 9.88023L5.00012 11H11V5L9.87999 6.11988C9.48999 6.50988 8.85999 6.50988 8.46999 6.11988C8.07999 5.72988 8.07999 5.09988 8.46999 4.70988L10.59 2.58988C11.37 1.80988 12.64 1.80988 13.42 2.58988L15.54 4.70988Z"/>
</symbol>

<symbol viewBox="0 0 24 24" id="music">
<path fill-rule="evenodd" clip-rule="evenodd" d="M8 5V13.5347C7.41174 13.1946 6.7287 13 6 13C3.79 13 2 14.79 2 17C2 19.21 3.79 21 6 21C8.21 21 10 19.21 10 17V9H19V11.5347C18.4117 11.1946 17.7287 11 17 11C14.79 11 13 12.79 13 15C13 17.21 14.79 19 17 19C19.21 19 21 17.21 21 15V5C21 3.9 20.1 3 19 3H10C8.9 3 8 3.9 8 5ZM19 7V5H10V7H19ZM6 15C7.1 15 8 15.9 8 17C8 18.1 7.1 19 6 19C4.9 19 4 18.1 4 17C4 15.9 4.9 15 6 15ZM17 13C18.1 13 19 13.9 19 15C19 16.1 18.1 17 17 17C15.9 17 15 16.1 15 15C15 13.9 15.9 13 17 13Z"/>
</symbol>

<symbol viewBox="0 0 24 24" id="next">
<path d="M18.9997 11L17.8799 9.88023C17.4899 9.49023 17.4899 8.86023 17.8799 8.47023C18.2699 8.08023 18.8999 8.08023 19.2899 8.47023L21.4099 10.5902C22.1899 11.3702 22.1899 12.6402 21.4099 13.4202L19.2899 15.5402C18.8999 15.9302 18.2699 15.9302 17.8799 15.5402C17.4899 15.1502 17.4899 14.5202 17.8799 14.1302L19.0101 13H4V16C4 16.55 3.55 17 3 17C2.45 17 2 16.55 2 16V13C2 11.9 2.9 11 4 11H18.9997Z"/>
</symbol>

<symbol viewBox="0 0 24 24" id="open">
<path d="M8 3C8.55 3 9 3.45 9 4C9 4.55 8.55 5 8 5H5V8C5 8.55 4.55 9 4 9C3.45 9 3 8.55 3 8V5C3 3.9 3.9 3 5 3H8Z"/>
<path d="M16 3H19C20.1 3 21 3.9 21 5V8C21 8.55 20.55 9 20 9C19.45 9 19 8.55 19 8V5H16C15.45 5 15 4.55 15 4C15 3.45 15.45 3 16 3Z"/>
<path d="M5 19V16C5 15.45 4.55 15 4 15C3.45 15 3 15.45 3 16V19C3 20.1 3.9 21 5 21H8C8.55 21 9 20.55 9 20C9 19.45 8.55 19 8 19H5Z"/>
<path d="M19 19V16C19 15.45 19.45 15 20 15C20.55 15 21 15.45 21 16V19C21 20.1 20.1 21 19 21H16C15.45 21 15 20.55 15 20C15 19.45 15.45 19 16 19H19Z"/>
</symbol>

<symbol viewBox="0 0 24 24" id="paste">
<path d="M13 6H15C15.55 6 16 6.45 16 7C16 7.55 15.55 8 15 8H13C12.45 8 12 7.55 12 7C12 6.45 12.45 6 13 6Z"/>
<path d="M15 10H13C12.45 10 12 10.45 12 11C12 11.55 12.45 12 13 12H15C15.55 12 16 11.55 16 11C16 10.45 15.55 10 15 10Z"/>
<path fill-rule="evenodd" clip-rule="evenodd" d="M10 2H18C19.1 2 20 2.9 20 4V16C20 17.1 19.1 18 18 18H16V20C16 21.1 15.1 22 14 22H6C4.9 22 4 21.1 4 20V8C4 6.9 4.9 6 6 6H8V4C8 2.9 8.9 2 10 2ZM18 4H10V16H18V4ZM8 8H6V20H14V18H10C8.9 18 8 17.1 8 16V8Z"/>
</symbol>

<symbol viewBox="0 0 24 24" id="phone">
<path d="M5.22958 4.12986C5.39958 4.12986 5.64958 4.17986 5.88958 4.41986L8.67958 7.20986C8.92958 7.45986 8.96958 7.72986 8.96958 7.86986C8.96958 8.01986 8.93958 8.22986 8.76958 8.39986L8.09958 9.06986C7.87958 9.28986 7.70958 9.55986 7.61958 9.84986C7.06958 11.5099 8.20958 13.4299 9.44958 14.6799C10.6896 15.9199 12.1596 16.6499 13.3796 16.6499C13.6896 16.6499 13.9996 16.5999 14.2796 16.5099C14.5796 16.4099 14.8396 16.2499 15.0596 16.0299L15.7296 15.3599C15.8996 15.1899 16.0996 15.1599 16.2396 15.1599C16.3796 15.1599 16.6596 15.1999 16.9196 15.4499L19.7096 18.2399C20.0396 18.5699 20.0096 18.9299 19.9796 19.0699C19.9396 19.2399 19.8396 19.4799 19.5396 19.5899C19.2296 19.7099 18.8796 19.8199 18.3996 19.9399C17.7296 20.0699 17.0296 20.1299 16.3296 20.1299C14.1096 20.1299 11.9096 19.4899 9.97958 18.2899L9.89958 18.2399C9.69958 18.1099 9.49958 17.9899 9.29958 17.8399C9.13958 17.7299 8.97958 17.6099 8.83958 17.4899C8.49958 17.2199 8.05958 16.8599 7.65958 16.4599C7.25958 16.0599 6.89958 15.6199 6.63958 15.2899C6.51958 15.1299 6.39958 14.9799 6.27958 14.8099C6.13958 14.6199 6.01958 14.4199 5.88958 14.2199L5.84958 14.1599C4.23958 11.5699 3.64958 8.57986 4.18958 5.72986C4.29958 5.24986 4.40958 4.89986 4.53958 4.57986C4.69958 4.16986 5.07958 4.12986 5.22958 4.12986M5.22958 2.12986C4.14958 2.12986 3.11958 2.73986 2.67958 3.83986C2.48958 4.30986 2.34958 4.80986 2.23958 5.30986C1.59958 8.59986 2.24958 12.1599 4.15958 15.2199C4.31958 15.4799 4.47958 15.7299 4.65958 15.9799C4.78958 16.1599 4.92958 16.3499 5.06958 16.5299C5.43958 16.9899 5.81958 17.4499 6.24958 17.8799C6.67958 18.3099 7.13958 18.6999 7.59958 19.0599C7.77958 19.1999 7.95958 19.3399 8.14958 19.4699C8.39958 19.6499 8.65958 19.8099 8.90958 19.9699C11.2096 21.3999 13.7896 22.1199 16.3296 22.1199C17.1696 22.1199 17.9996 22.0399 18.8196 21.8799C19.3196 21.7599 19.8096 21.6199 20.2896 21.4399C22.1496 20.6999 22.5996 18.2799 21.1296 16.8099L18.3396 14.0199C17.7596 13.4399 16.9996 13.1399 16.2496 13.1399C15.5396 13.1399 14.8496 13.3999 14.3196 13.9299L13.6496 14.5999C13.5696 14.6299 13.4796 14.6399 13.3796 14.6399C12.7396 14.6399 11.7296 14.1099 10.8596 13.2499C9.86958 12.2599 9.31958 11.0499 9.50958 10.4699L10.1796 9.79986C11.2596 8.71986 11.2196 6.91986 10.0896 5.77986L7.29958 2.98986C6.69958 2.38986 5.94958 2.10986 5.21958 2.10986L5.22958 2.12986Z"/>
</symbol>

<symbol viewBox="0 0 24 24" id="plus">
<path d="M12 3C12.5523 3 13 3.44772 13 4V11H20C20.5523 11 21 11.4477 21 12C21 12.5523 20.5523 13 20 13H13V20C13 20.5523 12.5523 21 12 21C11.4477 21 11 20.5523 11 20V13H4C3.44772 13 3 12.5523 3 12C3 11.4477 3.44772 11 4 11H11V4C11 3.44772 11.4477 3 12 3Z"/>
</symbol>

<symbol viewBox="0 0 24 24" id="read">
<path fill-rule="evenodd" clip-rule="evenodd" d="M11.9902 5.24023C11.9902 5.24023 14.4902 3.99023 16.9902 3.99023V4.00023C18.1402 4.00023 19.2902 4.25023 20.1902 4.55023C21.9902 5.14023 21.9902 5.94023 21.9902 7.14023V16.5302C21.9902 18.4702 20.9602 19.2502 19.7102 19.2502C19.4702 19.2502 19.2302 19.2202 18.9802 19.1702C18.3502 19.0302 17.6702 18.9402 16.9902 18.9402C15.3802 18.9402 13.7702 19.4502 12.8302 19.8202C12.5602 19.9302 12.2702 19.9802 11.9902 19.9802C11.7102 19.9802 11.4202 19.9302 11.1502 19.8202C10.2002 19.4602 8.60023 18.9402 6.99023 18.9402C6.31023 18.9402 5.63023 19.0402 5.00023 19.1702C4.75023 19.2202 4.51023 19.2502 4.27023 19.2502C3.02023 19.2502 1.99023 18.4802 1.99023 16.5302V7.13023C1.99023 5.93023 1.99023 5.14023 3.79023 4.54023C4.69023 4.24023 5.84023 3.99023 6.99023 3.99023C9.49023 3.99023 11.9902 5.24023 11.9902 5.24023ZM19.5702 6.45023C19.0702 6.28023 18.0702 6.00023 17.0002 6.00023L16.9902 5.99023C15.2887 5.99023 13.4763 6.75832 13.0002 6.97433V17.6584C14.1173 17.2908 15.5327 16.9602 16.9902 16.9602C17.7502 16.9602 18.5602 17.0502 19.4002 17.2302C19.5102 17.2602 19.6202 17.2702 19.7102 17.2702C19.7793 17.2702 19.8293 17.2607 19.8602 17.2548C19.8741 17.2521 19.8841 17.2502 19.8902 17.2502C19.8902 17.2502 19.8908 17.2434 19.896 17.2287C19.9181 17.1663 19.9902 16.9632 19.9902 16.5502V6.62023C19.9102 6.58023 19.7802 6.52023 19.5702 6.45023ZM11.0002 17.6654V6.9832C10.5579 6.78018 8.72422 5.99023 6.99023 5.99023C5.92023 5.99023 4.92023 6.27023 4.42023 6.44023C4.21023 6.51023 4.08023 6.57023 4.00023 6.61023V16.5502C4.00023 17.0456 4.10006 17.2324 4.11816 17.2663L4.12023 17.2702H4.27023C4.36023 17.2702 4.47023 17.2502 4.58023 17.2302C5.42023 17.0502 6.23023 16.9602 6.99023 16.9602C8.44914 16.9602 9.87762 17.295 11.0002 17.6654Z"/>

</symbol>

<symbol viewBox="0 0 24 24" id="refresh">
<path d="M12.9998 4.02982C12.9998 4.47982 13.2998 4.88982 13.7298 4.99982C17.0898 5.86982 19.4898 9.20982 18.9098 12.9998C18.4698 15.8898 16.2398 18.2698 13.4098 18.8298C8.92975 19.7198 4.99975 16.2498 4.99975 11.8698C4.99975 9.94982 5.76975 8.20982 6.99975 6.92982V8.51982C6.99975 9.07982 7.44975 9.52982 7.99975 9.52982C8.54975 9.52982 8.99975 9.07982 8.99975 8.51982V5.47982C8.99975 4.35982 8.09975 3.44982 6.99975 3.44982H3.99975C3.44975 3.44982 2.99975 3.89982 2.99975 4.45982C2.99975 5.01982 3.44975 5.46982 3.99975 5.46982H5.58975C3.79975 7.30982 2.76975 9.89982 3.03975 12.7398C3.43975 16.9798 6.80975 20.4698 10.9798 20.9298C16.4098 21.5298 20.9998 17.2398 20.9998 11.8598C20.9998 7.59982 18.1298 4.02982 14.2398 3.01982C13.6098 2.85982 12.9998 3.35982 12.9998 4.00982V4.02982Z"/>

</symbol>

<symbol viewBox="0 0 24 24" id="replay">
<path d="M19 5.82982L17.88 4.70982C17.49 4.31982 17.49 3.68982 17.88 3.29982C18.27 2.90982 18.9 2.90982 19.29 3.29982L21.41 5.41982C22.19 6.19982 22.19 7.46982 21.41 8.24982L19.29 10.3698C18.9 10.7598 18.27 10.7598 17.88 10.3698C17.49 9.97982 17.49 9.34982 17.88 8.95982L19.01 7.82982H4V10.8298C4 11.3798 3.55 11.8298 3 11.8298C2.45 11.8298 2 11.3798 2 10.8298V7.82982C2 6.72982 2.9 5.82982 4 5.82982H19Z"/>
<path d="M4.99988 18.1699L6.11988 19.2899C6.50988 19.6799 6.50988 20.3099 6.11988 20.6999C5.72988 21.0899 5.09988 21.0899 4.70988 20.6999L2.58988 18.5799C1.80988 17.7999 1.80988 16.5299 2.58988 15.7499L4.70988 13.6299C5.09988 13.2399 5.72988 13.2399 6.11988 13.6299C6.50988 14.0199 6.50988 14.6499 6.11988 15.0399L4.98988 16.1699H19.9999V13.1699C19.9999 12.6199 20.4499 12.1699 20.9999 12.1699C21.5499 12.1699 21.9999 12.6199 21.9999 13.1699V16.1699C21.9999 17.2699 21.0999 18.1699 19.9999 18.1699H4.99988Z"/>

</symbol>

<symbol viewBox="0 0 24 24" id="right">
<path d="M16.5,12c0,0.3-0.1,0.5-0.3,0.7l-7,7c-0.4,0.4-1,0.4-1.4,0s-0.4-1,0-1.4l6.3-6.3L7.8,5.7c-0.4-0.4-0.4-1,0-1.4c0.4-0.4,1-0.4,1.4,0l7,7C16.4,11.5,16.5,11.8,16.5,12L16.5,12z"/>
</symbol>

<symbol viewBox="0 0 24 24" id="search">
<path fill-rule="evenodd" clip-rule="evenodd" d="M2 10C2 5.58 5.58 2 10 2C14.42 2 18 5.58 18 10C18 11.8522 17.3713 13.557 16.3156 14.9125C16.3495 14.9387 16.3822 14.9673 16.4133 14.9985L21.7095 20.2947C22.1001 20.6852 22.1001 21.3184 21.7095 21.7089C21.319 22.0994 20.6859 22.0994 20.2953 21.7089L14.9991 16.4127C14.968 16.3816 14.9394 16.349 14.9133 16.315C13.5576 17.3711 11.8526 18 10 18C5.58 18 2 14.42 2 10ZM16 10C16 6.69 13.31 4 10 4C6.69 4 4 6.69 4 10C4 13.31 6.69 16 10 16C13.31 16 16 13.31 16 10Z"/>
</symbol>

<symbol viewBox="0 0 24 24" id="settings">
<path fill-rule="evenodd" clip-rule="evenodd" d="M8.00049 12C8.00049 9.79 9.79049 8 12.0005 8C14.2105 8 16.0005 9.79 16.0005 12C16.0005 14.21 14.2105 16 12.0005 16C9.79049 16 8.00049 14.21 8.00049 12ZM14.0005 12C14.0005 10.9 13.1005 10 12.0005 10C10.9005 10 10.0005 10.9 10.0005 12C10.0005 13.1 10.9005 14 12.0005 14C13.1005 14 14.0005 13.1 14.0005 12Z"/>
<path fill-rule="evenodd" clip-rule="evenodd" d="M11.4205 2H12.5405C13.4005 2 14.1705 2.55 14.4405 3.37L14.8305 4.53C14.9155 4.565 14.9805 4.5925 15.0455 4.62C15.1105 4.6475 15.1755 4.675 15.2605 4.71L16.3505 4.16C16.6305 4.02 16.9405 3.95 17.2405 3.95C17.7505 3.95 18.2705 4.16 18.6505 4.54L19.4405 5.33C20.0405 5.94 20.1905 6.87 19.8105 7.64L19.2605 8.74C19.2955 8.825 19.323 8.89 19.3505 8.955C19.378 9.02 19.4055 9.085 19.4405 9.17L20.6005 9.56C21.4205 9.83 21.9705 10.6 21.9705 11.46V12.58C21.9705 13.44 21.4205 14.21 20.6005 14.48L19.4405 14.87C19.4055 14.955 19.378 15.02 19.3505 15.085C19.323 15.15 19.2955 15.215 19.2605 15.3L19.8105 16.4C20.2005 17.17 20.0505 18.1 19.4405 18.71L18.6505 19.5C18.2705 19.89 17.7605 20.09 17.2405 20.09C16.9405 20.09 16.6305 20.02 16.3505 19.88L15.2605 19.33C15.1755 19.365 15.1105 19.3925 15.0455 19.42C14.9805 19.4475 14.9155 19.475 14.8305 19.51L14.4405 20.67C14.1705 21.49 13.4005 22.04 12.5405 22.04H11.4205C10.5605 22.04 9.79047 21.49 9.52047 20.67L9.13047 19.51C9.04547 19.475 8.98047 19.4475 8.91547 19.42C8.85047 19.3925 8.78547 19.365 8.70047 19.33L7.60047 19.88C7.32047 20.02 7.01047 20.09 6.71047 20.09C6.20047 20.09 5.68047 19.88 5.30047 19.5L4.51047 18.71C3.91047 18.1 3.76047 17.17 4.14047 16.4L4.69047 15.3C4.65547 15.215 4.62797 15.15 4.60046 15.085C4.57297 15.02 4.54547 14.955 4.51047 14.87L3.35047 14.48C2.53047 14.21 1.98047 13.44 1.98047 12.58V11.46C1.98047 10.6 2.53047 9.83 3.35047 9.56L4.51047 9.17C4.54547 9.08501 4.57297 9.02001 4.60046 8.95501C4.62797 8.89001 4.65547 8.82501 4.69047 8.74L4.14047 7.64C3.75047 6.87 3.90047 5.94 4.51047 5.33L5.30047 4.54C5.68047 4.15 6.19047 3.95 6.71047 3.95C7.01047 3.95 7.32047 4.02 7.60047 4.16L8.70047 4.71C8.78547 4.675 8.85048 4.6475 8.91548 4.62C8.98048 4.5925 9.04547 4.565 9.13047 4.53L9.52047 3.37C9.79047 2.55 10.5605 2 11.4205 2ZM12.9505 5.16L12.5605 4H11.4205L11.0305 5.16L10.7405 6.03L9.90047 6.38L9.48047 6.56L8.64047 6.91L6.72047 5.95L5.93047 6.74L6.89047 8.66L6.54047 9.5L6.36047 9.93L6.01047 10.77L5.14047 11.06L3.98047 11.45V12.57L5.14047 12.96L6.01047 13.25L6.36047 14.09L6.54047 14.52L6.89047 15.36L5.93047 17.28L6.72047 18.07L8.64047 17.11L9.48047 17.46L9.91047 17.64L10.7505 17.99L11.0405 18.86L11.4305 20.02H12.5505L12.9405 18.86L13.2305 17.99L14.0705 17.64L14.5105 17.46L15.3505 17.11L16.1705 17.52L17.2605 18.07L18.0505 17.28L17.0905 15.36L17.4405 14.52L17.6205 14.09L17.9705 13.25L18.8405 12.96L20.0005 12.57V11.45L18.8405 11.06L17.9705 10.77L17.6205 9.93L17.4405 9.5L17.0905 8.66L18.0505 6.74L17.2605 5.95L16.1705 6.5L15.3505 6.91L14.5105 6.56L14.4605 6.54L14.0805 6.38L13.2405 6.03L12.9505 5.16Z"/>
</symbol>

<symbol viewBox="0 0 24 24" id="share">
<path fill-rule="evenodd" clip-rule="evenodd" d="M18.5 3C16.84 3 15.5 4.34 15.5 6C15.5 6.11554 15.5065 6.22953 15.5191 6.34162L7.60421 9.85937C7.0632 9.32754 6.32071 9 5.5 9C3.84 9 2.5 10.34 2.5 12C2.5 13.66 3.84 15 5.5 15C6.33317 15 7.08573 14.6624 7.62871 14.1163L13.5544 16.3384C13.5186 16.5536 13.5 16.7746 13.5 17C13.5 19.21 15.29 21 17.5 21C19.71 21 21.5 19.21 21.5 17C21.5 14.79 19.71 13 17.5 13C16.2323 13 15.1029 13.589 14.3701 14.5083L8.48513 12.3014C8.49497 12.2023 8.5 12.1018 8.5 12C8.5 11.8845 8.49351 11.7705 8.48087 11.6584L16.3958 8.14063C16.9368 8.67246 17.6793 9 18.5 9C20.16 9 21.5 7.66 21.5 6C21.5 4.34 20.16 3 18.5 3ZM18.5 5C19.05 5 19.5 5.45 19.5 6C19.5 6.55 19.05 7 18.5 7C17.95 7 17.5 6.55 17.5 6C17.5 5.45 17.95 5 18.5 5ZM17.5 15C18.6 15 19.5 15.9 19.5 17C19.5 18.1 18.6 19 17.5 19C16.4 19 15.5 18.1 15.5 17C15.5 15.9 16.4 15 17.5 15ZM6.5 12C6.5 11.45 6.05 11 5.5 11C4.95 11 4.5 11.45 4.5 12C4.5 12.55 4.95 13 5.5 13C6.05 13 6.5 12.55 6.5 12Z"/>
</symbol>

<symbol viewBox="0 0 24 24" id="shuffle">
<path d="M17.8799 4.70982L19.0002 5.83008H11C9.9 5.83008 9 6.73008 9 7.83008V16.1701H3C2.45 16.1701 2 16.6201 2 17.1701C2 17.7201 2.45 18.1701 3 18.1701H9C10.1 18.1701 11 17.2701 11 16.1701V7.83008H19.0096L17.8799 8.95982C17.4899 9.34982 17.4899 9.97982 17.8799 10.3698C18.2699 10.7598 18.8999 10.7598 19.2899 10.3698L21.4099 8.24982C22.1899 7.46982 22.1899 6.19982 21.4099 5.41982L19.2899 3.29982C18.8999 2.90982 18.2699 2.90982 17.8799 3.29982C17.4899 3.68982 17.4899 4.31982 17.8799 4.70982Z"/>
<path d="M17.8799 15.0502L18.9997 16.1699H14C13.45 16.1699 13 16.6199 13 17.1699C13 17.7199 13.45 18.1699 14 18.1699H19.0101L17.8799 19.3002C17.4899 19.6902 17.4899 20.3202 17.8799 20.7102C18.2699 21.1002 18.8999 21.1002 19.2899 20.7102L21.4099 18.5902C22.1899 17.8102 22.1899 16.5402 21.4099 15.7602L19.2899 13.6402C18.8999 13.2502 18.2699 13.2502 17.8799 13.6402C17.4899 14.0302 17.4899 14.6602 17.8799 15.0502Z"/>
<path d="M6 5.83008H3C2.45 5.83008 2 6.28008 2 6.83008C2 7.38008 2.45 7.83008 3 7.83008H6C6.55 7.83008 7 7.38008 7 6.83008C7 6.28008 6.55 5.83008 6 5.83008Z"/>
</symbol>

<symbol viewBox="0 0 24 24" id="smile">
<path d="M10 10C10 10.5523 9.55228 11 9 11C8.44771 11 8 10.5523 8 10C8 9.44771 8.44771 9 9 9C9.55228 9 10 9.44771 10 10Z"/>
<path d="M15 11C15.5523 11 16 10.5523 16 10C16 9.44771 15.5523 9 15 9C14.4477 9 14 9.44771 14 10C14 10.5523 14.4477 11 15 11Z"/>
<path d="M8.43989 15.49C9.36989 16.44 10.6499 17 11.9999 17C13.3499 17 14.6299 16.44 15.5599 15.49C16.0099 15.03 15.9099 14.27 15.3599 13.95L15.3199 13.93C14.9199 13.69 14.4299 13.8 14.0999 14.13C13.5399 14.68 12.7999 15 11.9999 15C11.1999 15 10.4499 14.69 9.89989 14.13C9.57989 13.8 9.07989 13.7 8.67989 13.93L8.63989 13.95C8.08989 14.27 7.98989 15.03 8.43989 15.49Z"/>
<path fill-rule="evenodd" clip-rule="evenodd" d="M2 12C2 6.48 6.48 2 12 2C17.52 2 22 6.48 22 12C22 17.52 17.52 22 12 22C6.48 22 2 17.52 2 12ZM20 12C20 7.59 16.41 4 12 4C7.59 4 4 7.59 4 12C4 16.41 7.59 20 12 20C16.41 20 20 16.41 20 12Z"/>
</symbol>

<symbol viewBox="0 0 24 24" id="star">
<path d="M12.0001 5.42L13.6201 8.86L14.0701 9.82L15.1201 9.98L18.9301 10.56L16.1101 13.43L15.4001 14.15L15.5601 15.15L16.2101 19.09L12.9501 17.3L11.9901 16.77L11.0301 17.3L7.77009 19.09L8.42009 15.15L8.58009 14.15L7.87009 13.43L5.05009 10.56L8.86009 9.98L9.91009 9.82L10.3601 8.86L11.9801 5.42M11.9801 2C11.6401 2 11.2901 2.19 11.1201 2.56L8.55009 8L2.81009 8.87C2.02009 8.99 1.70009 10.01 2.28009 10.59L6.43009 14.83L5.45009 20.81C5.34009 21.46 5.84009 21.99 6.40009 21.99C6.55009 21.99 6.70009 21.95 6.85009 21.87L11.9901 19.05L17.1301 21.87C17.2801 21.95 17.4301 21.99 17.5801 21.99C18.1401 21.99 18.6401 21.46 18.5301 20.81L17.5501 14.83L21.7001 10.59C22.2701 10.01 21.9601 8.99 21.1701 8.87L15.4301 8L12.8601 2.56C12.6801 2.19 12.3401 2 12.0001 2H11.9801Z"/>
</symbol>

<symbol viewBox="0 0 24 24" id="stars">
<path fill-rule="evenodd" clip-rule="evenodd" d="M9.28974 2.45C9.42974 2.15 9.69974 2 9.97974 2H9.99974C10.2697 2 10.5497 2.15 10.6897 2.45L12.7397 6.8L17.3297 7.5C17.9697 7.6 18.2197 8.41 17.7597 8.88L14.4397 12.27L15.2197 17.06C15.3097 17.58 14.9097 18 14.4597 18C14.3397 18 14.2197 17.97 14.0997 17.91L9.98974 15.65L5.87974 17.91C5.75974 17.97 5.63974 18 5.51974 18C5.06974 18 4.66974 17.58 4.75974 17.06L5.53974 12.27L2.21974 8.88C1.75974 8.41 2.01974 7.6 2.64974 7.5L7.23974 6.8L9.28974 2.45ZM10.9397 7.66L9.99974 5.67H9.97974L9.03974 7.66L8.58974 8.62L7.53974 8.78L5.25974 9.13L6.96974 10.87L7.67974 11.59L7.51974 12.59L7.13974 14.93L9.02974 13.89L9.98974 13.36L10.9497 13.89L12.8397 14.93L12.4597 12.59L12.2997 11.59L13.0097 10.87L14.7197 9.13L12.4397 8.78L11.3897 8.62L10.9397 7.66Z"/>
<path d="M20.3597 13.5001L19.7197 12.1401H19.7297C19.6397 11.9501 19.3897 11.9501 19.2997 12.1401L18.6597 13.5001L17.2197 13.7201C17.0297 13.7501 16.9497 14.0001 17.0897 14.1501L18.1297 15.2101L17.8797 16.7101C17.8497 16.9201 18.0497 17.0801 18.2297 16.9801L19.5097 16.2701L20.7897 16.9801C20.9697 17.0701 21.1697 16.9201 21.1397 16.7101L20.8897 15.2101L21.9297 14.1501C22.0797 14.0001 21.9997 13.7501 21.7997 13.7201L20.3597 13.5001Z"/>
<path d="M18.9998 5C19.552 5 19.9998 4.55228 19.9998 4C19.9998 3.44772 19.552 3 18.9998 3C18.4475 3 17.9998 3.44772 17.9998 4C17.9998 4.55228 18.4475 5 18.9998 5Z"/>
<path d="M8.99976 21C8.99976 21.5523 8.55204 22 7.99976 22C7.44747 22 6.99976 21.5523 6.99976 21C6.99976 20.4477 7.44747 20 7.99976 20C8.55204 20 8.99976 20.4477 8.99976 21Z"/>
</symbol>

<symbol viewBox="0 0 24 24" id="trash">
<path fill-rule="evenodd" clip-rule="evenodd" d="M14 4H20C20.5523 4 21 4.44772 21 5C21 5.55228 20.5523 6 20 6H18.9032L18.22 20.11C18.17 21.17 17.4 22 16.47 22H7.53C6.6 22 5.83 21.17 5.78 20.11L5.09683 6H4C3.44772 6 3 5.55228 3 5C3 4.44772 3.44772 4 4 4H10C10 2.89543 10.8954 2 12 2C13.1046 2 14 2.89543 14 4ZM7.78 20L7.1 6H16.9L16.22 20H7.78Z"/>
</symbol>

<symbol viewBox="0 0 24 24" id="up">
<path d="M12,7.5c0.3,0,0.5,0.1,0.7,0.3l7,7c0.4,0.4,0.4,1,0,1.4s-1,0.4-1.4,0L12,9.9l-6.3,6.3c-0.4,0.4-1,0.4-1.4,0s-0.4-1,0-1.4l7-7C11.5,7.6,11.8,7.5,12,7.5L12,7.5z"/>
</symbol>

<symbol viewBox="0 0 24 24" id="video">
<path fill-rule="evenodd" clip-rule="evenodd" d="M17 7.87782V7C17 5.9 16.1 5 15 5H4C2.9 5 2 5.9 2 7V17C2 18.1 2.9 19 4 19H15C16.1 19 17 18.1 17 17V16.1621L19.01 17.31C19.33 17.49 19.67 17.58 20 17.58C21.04 17.58 22 16.74 22 15.58V8.46996C22 7.29996 21.04 6.46996 20 6.46996V6.45996C19.67 6.45996 19.33 6.53996 19.01 6.72996L17 7.87782ZM15 7H4V17H15V7ZM17 10.17V13.85L20 15.56V8.45996L17 10.17Z"/>
</symbol>

<symbol viewBox="0 0 24 24" id="wifi">
<path d="M2.30986 8.73L2.21986 8.62H2.19986C1.84986 8.21 1.92986 7.61 2.35986 7.28C4.99986 5.23 8.33986 4 11.9799 4C15.6199 4 18.9599 5.23 21.5999 7.28C22.0299 7.61 22.1099 8.21 21.7599 8.62L21.6699 8.73C21.3299 9.13 20.7299 9.16 20.3099 8.84C18.0299 7.07 15.1299 6 11.9899 6C8.84986 6 5.95986 7.07 3.66986 8.84C3.24986 9.17 2.64986 9.13 2.30986 8.73Z"/>
<path d="M4.90982 11.74C5.25982 12.15 5.88982 12.22 6.32982 11.89C7.89983 10.71 9.86983 10 12.0098 10C14.1498 10 16.1198 10.71 17.6898 11.89C18.1298 12.22 18.7498 12.15 19.1098 11.74C19.4898 11.3 19.4098 10.65 18.9398 10.3C17.0198 8.86 14.6298 8 12.0198 8C9.40983 8 7.00982 8.86 5.09982 10.3C4.62982 10.65 4.54982 11.3 4.92982 11.74H4.90982Z"/>
<path d="M7.70972 13.37C8.90972 12.51 10.3897 12 11.9997 12H12.0197C13.6197 12 15.1097 12.51 16.3097 13.37C16.7797 13.71 16.8497 14.37 16.4697 14.81C16.0997 15.23 15.4797 15.27 15.0197 14.95C14.1697 14.35 13.1397 13.99 12.0097 13.99C10.8797 13.99 9.84972 14.35 8.99972 14.95C8.53972 15.27 7.90972 15.23 7.54972 14.81C7.17972 14.38 7.23972 13.71 7.70972 13.37Z"/>
<path d="M13.9998 18C13.9998 19.1046 13.1043 20 11.9998 20C10.8952 20 9.99976 19.1046 9.99976 18C9.99976 16.8954 10.8952 16 11.9998 16C13.1043 16 13.9998 16.8954 13.9998 18Z"/>
</symbol>

<symbol viewBox="0 0 24 24" id="windows">
<path d="M5 3C6.10457 3 7 3.89543 7 5C7 6.10457 6.10457 7 5 7C3.89543 7 3 6.10457 3 5C3 3.89543 3.89543 3 5 3Z"/>
<path d="M7 12C7 10.8954 6.10457 10 5 10C3.89543 10 3 10.8954 3 12C3 13.1046 3.89543 14 5 14C6.10457 14 7 13.1046 7 12Z"/>
<path d="M7 19C7 17.8954 6.10457 17 5 17C3.89543 17 3 17.8954 3 19C3 20.1046 3.89543 21 5 21C6.10457 21 7 20.1046 7 19Z"/>
<path d="M21 12C21 10.8954 20.1046 10 19 10C17.8954 10 17 10.8954 17 12C17 13.1046 17.8954 14 19 14C20.1046 14 21 13.1046 21 12Z"/>
<path d="M19 17C20.1046 17 21 17.8954 21 19C21 20.1046 20.1046 21 19 21C17.8954 21 17 20.1046 17 19C17 17.8954 17.8954 17 19 17Z"/>
<path d="M21 5C21 3.89543 20.1046 3 19 3C17.8954 3 17 3.89543 17 5C17 6.10457 17.8954 7 19 7C20.1046 7 21 6.10457 21 5Z"/>
<path d="M12 10C13.1046 10 14 10.8954 14 12C14 13.1046 13.1046 14 12 14C10.8954 14 10 13.1046 10 12C10 10.8954 10.8954 10 12 10Z"/>
<path d="M14 19C14 17.8954 13.1046 17 12 17C10.8954 17 10 17.8954 10 19C10 20.1046 10.8954 21 12 21C13.1046 21 14 20.1046 14 19Z"/>
<path d="M12 3C13.1046 3 14 3.89543 14 5C14 6.10457 13.1046 7 12 7C10.8954 7 10 6.10457 10 5C10 3.89543 10.8954 3 12 3Z"/>
</symbol>

<symbol viewBox="0 0 24 24" id="zoom-in">
<path d="M10 14C9.44772 14 9 13.5523 9 13V11H7C6.44772 11 6 10.5523 6 10C6 9.44772 6.44772 9 7 9H9V7C9 6.44772 9.44772 6 10 6C10.5523 6 11 6.44772 11 7V9H13C13.5523 9 14 9.44772 14 10C14 10.5523 13.5523 11 13 11H11V13C11 13.5523 10.5523 14 10 14Z"/>
<path fill-rule="evenodd" clip-rule="evenodd" d="M2 10C2 5.58 5.58 2 10 2C14.42 2 18 5.58 18 10C18 11.8522 17.3713 13.557 16.3156 14.9125C16.3495 14.9387 16.3822 14.9673 16.4133 14.9985L21.7095 20.2947C22.1001 20.6852 22.1001 21.3184 21.7095 21.7089C21.319 22.0994 20.6859 22.0994 20.2953 21.7089L14.9991 16.4127C14.968 16.3816 14.9394 16.349 14.9133 16.315C13.5576 17.3711 11.8526 18 10 18C5.58 18 2 14.42 2 10ZM16 10C16 6.69 13.31 4 10 4C6.69 4 4 6.69 4 10C4 13.31 6.69 16 10 16C13.31 16 16 13.31 16 10Z"/>
</symbol>

<symbol viewBox="0 0 24 24" id="zoom-out">
<path d="M6 10C6 9.44772 6.44772 9 7 9H13C13.5523 9 14 9.44772 14 10C14 10.5523 13.5523 11 13 11H7C6.44772 11 6 10.5523 6 10Z"/>
<path fill-rule="evenodd" clip-rule="evenodd" d="M10 2C5.58 2 2 5.58 2 10C2 14.42 5.58 18 10 18C11.8526 18 13.5576 17.3711 14.9133 16.315C14.9394 16.349 14.968 16.3816 14.9991 16.4127L20.2953 21.7089C20.6859 22.0994 21.319 22.0994 21.7095 21.7089C22.1001 21.3184 22.1001 20.6852 21.7095 20.2947L16.4133 14.9985C16.3822 14.9673 16.3495 14.9387 16.3156 14.9125C17.3713 13.557 18 11.8522 18 10C18 5.58 14.42 2 10 2ZM10 4C13.31 4 16 6.69 16 10C16 13.31 13.31 16 10 16C6.69 16 4 13.31 4 10C4 6.69 6.69 4 10 4Z"/>
</symbol>

</defs>
</svg>

